<svg version="1.0" xmlns="http://www.w3.org/2000/svg"  width="234.000000pt" height="261.000000pt" viewBox="0 0 234.000000 261.000000"  preserveAspectRatio="xMidYMid meet"> <g transform="translate(0.000000,261.000000) scale(0.050000,-0.050000)" fill="#e4c5c2" stroke="none"> <path d="M567 4743 c-211 -153 -312 -504 -240 -832 25 -114 33 -253 33 -558 0 -580 71 -829 294 -1033 232 -212 423 -156 843 248 106 101 126 114 117 72 -6 -27 -17 -135 -25 -240 -12 -156 -26 -215 -82 -333 -86 -184 -85 -227 17 -429 l83 -167 -74 -131 c-279 -490 -296 -677 -87 -985 83 -123 98 -120 178 29 36 69 97 155 134 193 l68 68 -25 129 c-37 186 1 426 67 426 58 0 112 -204 112 -425 0 -243 34 -246 53 -4 13 181 -9 288 -83 397 -64 95 -63 113 18 325 144 377 163 622 71 932 l-45 156 41 44 c79 84 114 279 65 355 -14 21 -19 -4 -20 -86 0 -118 -42 -254 -78 -254 -61 0 -38 412 28 513 l35 53 222 -12 c278 -14 287 -17 345 -142 70 -150 68 -453 -6 -758 -42 -174 -54 -275 -54 -454 l-1 -230 94 -192 c116 -236 116 -233 2 -361 -149 -168 -221 -387 -163 -495 44 -81 60 -58 66 91 8 196 158 482 229 438 30 -19 26 -318 -7 -455 -37 -160 -7 -174 181 -82 265 130 291 280 110 629 l-100 193 46 62 c92 125 77 319 -32 436 l-42 44 44 173 c61 240 63 495 4 608 -71 137 -51 131 133 -38 540 -495 811 -556 979 -221 123 244 161 644 92 973 -29 139 -30 193 -7 481 46 602 -66 834 -389 800 -171 -17 -272 -86 -930 -628 -191 -157 -255 -182 -512 -198 -265 -16 -252 -21 -511 210 -651 583 -1091 809 -1291 665z m383 -126 c346 -171 1053 -737 1110 -888 83 -218 5 -363 -280 -521 -725 -400 -910 -569 -904 -823 4 -139 -23 -136 -162 14 -82 88 -128 163 -177 285 l-66 166 -1 450 c-1 361 -9 484 -38 619 -68 310 -12 546 169 709 98 89 149 88 349 -11z m3024 -95 c124 -90 183 -321 139 -552 -30 -158 -22 -605 12 -646 34 -41 33 -497 0 -557 -14 -24 -30 -78 -37 -120 -24 -157 -118 -308 -209 -337 -61 -20 -69 1 -21 52 84 90 11 301 -152 437 -99 84 -816 434 -1001 490 -33 10 -45 29 -45 71 0 87 10 87 402 -1 95 -21 185 -39 200 -38 66 1 -47 38 -309 100 -424 101 -383 162 147 219 283 31 318 68 50 54 -196 -10 -368 -40 -433 -74 -91 -49 -77 100 18 195 75 75 578 487 772 632 202 152 332 173 467 75z m-1406 -958 c-2 -272 11 -257 -246 -275 l-207 -15 17 78 c9 43 17 155 18 248 l0 170 95 6 c56 4 96 -2 98 -15 8 -59 5 -71 -22 -71 -37 0 -67 -136 -51 -225 24 -132 51 -75 102 221 20 120 34 70 32 -120 -2 -210 26 -162 46 80 13 155 14 156 67 150 l53 -6 -2 -226z m522 -528 c568 -285 823 -500 717 -606 -75 -75 -287 12 -517 210 -298 259 -345 300 -430 379 -49 46 -115 98 -145 116 -30 19 -55 46 -55 61 0 46 83 15 430 -160z m-1141 142 c-35 -57 -669 -689 -752 -750 -206 -151 -302 16 -123 214 144 159 945 650 875 536z m-74 -273 c-6 -63 -2 -168 8 -232 21 -131 15 -145 -114 -288 -87 -98 -109 -94 -109 22 0 120 46 282 131 460 87 183 97 188 84 38z m971 -40 c122 -257 147 -510 71 -733 -35 -103 -54 -106 -147 -26 l-77 67 35 163 c39 180 51 444 26 589 -24 137 7 117 92 -60z m-917 -420 c116 -302 92 -572 -94 -1035 -111 -277 -134 -375 -135 -561 0 -146 -6 -169 -65 -263 -36 -56 -75 -119 -87 -139 -60 -100 -171 262 -130 424 30 117 151 359 208 417 85 85 204 672 137 672 -10 0 -23 38 -30 85 -7 47 -18 112 -24 146 -20 99 188 338 220 254z m-290 -380 c56 -196 49 -485 -11 -485 -101 0 -148 298 -76 478 40 102 60 103 87 7z m1141 -18 c57 -65 62 -80 47 -145 -48 -206 -24 -356 101 -622 194 -414 206 -524 71 -621 -97 -69 -106 -57 -90 137 17 218 -3 303 -135 594 -95 209 -101 230 -109 425 -14 316 6 356 115 232z m212 -242 c51 -121 30 -405 -31 -405 -43 0 -79 321 -48 435 17 65 42 56 79 -30z"/> <path d="M689 4319 c-44 -72 941 -570 1046 -530 15 6 55 -3 88 -21 70 -36 102 -21 46 21 -59 44 -860 442 -1007 500 -146 58 -155 59 -173 30z m764 -352 c114 -63 204 -117 199 -122 -12 -11 -431 202 -431 220 -1 27 23 17 232 -98z"/> <path d="M1297 3814 c32 -39 150 -80 198 -69 39 10 -57 60 -166 87 -53 13 -56 11 -32 -18z"/> <path d="M1740 3700 c192 -32 260 -38 260 -22 0 24 -107 42 -237 40 l-113 -3 90 -15z"/> <path d="M840 3626 c-191 -32 -241 -104 -90 -128 266 -44 1050 -41 1050 3 0 9 -211 19 -468 23 -488 6 -598 24 -427 67 46 11 53 8 43 -19 -10 -27 3 -32 80 -32 72 0 92 7 92 33 0 30 37 32 410 20 405 -13 565 9 245 34 -176 14 -852 13 -935 -1z"/> <path d="M1712 3439 c-167 -36 -236 -60 -170 -58 102 2 447 60 464 77 33 33 -87 25 -294 -19z"/> <path d="M1475 3229 c-328 -164 -502 -275 -630 -401 -78 -77 -120 -171 -60 -135 69 41 155 120 155 142 0 28 133 129 245 187 113 58 90 33 -54 -61 -71 -46 -141 -99 -155 -116 -40 -50 114 41 273 161 75 57 154 113 174 124 20 11 37 26 37 35 0 8 16 15 35 15 46 1 315 171 293 185 -10 6 -151 -55 -313 -136z"/> <path d="M3609 4273 c-114 -55 -644 -397 -774 -500 -77 -61 -31 -97 47 -37 27 20 101 56 167 81 184 69 791 456 791 504 0 37 -93 18 -231 -48z"/> <path d="M2990 3541 c32 -14 21 -18 -48 -20 -49 0 -83 -7 -76 -14 52 -52 799 -106 1004 -73 157 26 149 79 -14 94 -246 21 -907 32 -866 13z"/> <path d="M2820 3350 c0 -13 233 -128 467 -231 128 -56 192 -74 235 -66 33 7 58 3 58 -8 0 -11 41 -35 91 -54 50 -20 87 -40 81 -46 -6 -6 -52 5 -102 24 -127 49 -160 26 -41 -28 177 -81 256 -104 280 -80 41 43 -282 238 -579 350 -160 60 -166 60 -118 6 21 -24 29 -39 18 -34 -11 6 -53 26 -94 44 -41 19 -80 43 -87 55 -19 31 -209 93 -209 68z"/> <path d="M2539 2948 c-44 -117 -61 -430 -29 -541 36 -123 83 -171 63 -65 -35 185 -37 391 -5 511 41 159 21 226 -29 95z"/> </g> </svg>